<svg width="512" height="512" viewBox="0 0 512 512" xmlns="http://www.w3.org/2000/svg" role="img" aria-label="CardioTrack logo">
  <defs>
    <linearGradient id="g" x1="0" y1="0" x2="1" y2="1">
      <stop offset="0%" stop-color="#EF4444"/>
      <stop offset="100%" stop-color="#DB2777"/>
    </linearGradient>
    <filter id="shadow" x="-20%" y="-20%" width="140%" height="140%">
      <feDropShadow dx="0" dy="8" stdDeviation="12" flood-color="#000" flood-opacity="0.18"/>
    </filter>
  </defs>
  <rect rx="40" ry="40" width="512" height="512" fill="#0F172A"/>
  <g transform="translate(56,56)" filter="url(#shadow)">
    <path d="M200 340L40 200c-44-40-46-110-4-152 40-40 106-40 146 0l18 18 18-18c40-40 106-40 146 0 42 42 40 112-4 152L200 340z" fill="url(#g)"/>
    <path d="M40 220h90l20-45 38 105 36-80 12 20h136" fill="none" stroke="#fff" stroke-width="18" stroke-linecap="round" stroke-linejoin="round"/>
  </g>
  <text x="256" y="480" text-anchor="middle" fill="#CBD5E1" font-family="Inter, ui-sans-serif, system-ui" font-size="44" letter-spacing="1">CardioTrack</text>
</svg>